# xmcd CD database file
#
# Track frame offsets:
#	150
#	34875
#	52764
#	75714
#	92690
#	102064
#	137239
#	165364
#	194014
#	230839
#
# Disc length: 3478 seconds
#
# Revision: 2
# Processed by: cddbd v1.5.1PL0 Copyright (c) Steve Scherf et al.
# Submitted via: CDex 1.50beta8
#
DISCID=7c0d940a
DTITLE=菅野義孝 - MOVEMENT
DYEAR=2005
DGENRE=Jazz
TTITLE0=ALL THE THINGS YOU ARE (Jerome Kern)
TTITLE1=COTTONTAIL (Duke Ellington)
TTITLE2=I'M A FOOL TO WANT YOU (Jack Wolf,Joel Herron,Frank Sinatra)
TTITLE3=72nd STREET (Yoshitaka Kanno)
TTITLE4=ANYTIME ANYWHERE (Yoshitaka Kanno)
TTITLE5=I'VE NEVER BEEN IN LOVE BEFORE (Frank Loesser)
TTITLE6=JEAN DE FLEUR (Grant Green)
TTITLE7=STARDUST (Hoagy Carmichael)
TTITLE8=THE BEST THINGS IN LIFE ARE FREE (B.G.DeSylva,Lew Brown,Ray Henderson)
TTITLE9=IT DON'T MEAN A THING (Duke Ellington)
EXTD=YEAR: 2005
EXTT0=
EXTT1=
EXTT2=
EXTT3=
EXTT4=
EXTT5=
EXTT6=
EXTT7=
EXTT8=
EXTT9=
PLAYORDER=
